<?xml version="1.0" standalone="no"?>
<!DOCTYPE svg PUBLIC "-//W3C//DTD SVG 20010904//EN"
 "http://www.w3.org/TR/2001/REC-SVG-20010904/DTD/svg10.dtd">
<svg version="1.0" xmlns="http://www.w3.org/2000/svg"
 width="500.000000pt" height="500.000000pt" viewBox="0 0 500.000000 500.000000"
 preserveAspectRatio="xMidYMid meet">
<metadata>
Created by potrace 1.16, written by Peter Selinger 2001-2019
</metadata>
<g transform="translate(0.000000,500.000000) scale(0.100000,-0.100000)"
fill="#000000" stroke="none">
<path d="M2292 4432 c-20 -7 -45 -16 -54 -19 -10 -3 -18 -9 -18 -14 0 -5 -5
-9 -11 -9 -18 0 -119 -92 -150 -136 -16 -24 -32 -57 -35 -74 l-7 -31 189 1
c104 0 203 1 220 0 24 0 38 -8 58 -34 l26 -34 -203 -1 c-214 -1 -331 -14 -467
-51 -25 -7 -54 -14 -65 -15 -11 -1 -20 -3 -20 -4 0 -2 -134 -49 -150 -53 -5
-2 -13 -6 -16 -11 -3 -4 -14 -9 -25 -11 -10 -2 -53 -21 -94 -43 -192 -100
-366 -242 -511 -418 -121 -147 -306 -441 -312 -497 -2 -21 -112 -20 2006 -19
807 1 1467 4 1467 9 0 11 -78 114 -102 135 -19 16 -93 17 -1254 17 l-1234 0
11 28 c41 101 97 202 154 276 52 68 187 200 260 254 136 100 151 110 210 143
41 23 54 35 42 37 -18 4 -123 -25 -142 -38 -5 -4 -23 -10 -39 -14 -40 -10
-239 -107 -304 -150 -119 -76 -227 -169 -305 -261 -63 -74 -167 -219 -167
-234 0 -4 -8 -15 -18 -24 -15 -14 -41 -17 -145 -17 l-127 0 10 24 c13 35 193
285 243 336 89 93 165 157 262 221 101 67 183 113 235 132 131 46 160 56 210
70 132 38 233 49 435 49 203 0 322 -14 485 -59 30 -8 69 -18 85 -23 142 -38
419 -169 574 -271 41 -27 75 -49 77 -49 2 0 58 -38 123 -85 65 -47 122 -85
125 -85 28 0 -84 124 -189 208 -38 32 -78 65 -89 74 -30 27 -237 164 -278 185
-21 10 -82 40 -135 67 -54 27 -107 52 -118 56 -46 18 -185 60 -199 60 -33 0
-123 44 -145 71 -13 16 -19 29 -15 28 36 -6 74 3 74 17 0 55 -149 223 -237
267 -59 30 -148 39 -201 19z"/>
<path d="M440 2846 c0 -10 43 -14 213 -19 218 -6 338 -17 442 -42 61 -15 104
-19 280 -30 55 -3 122 -11 148 -17 46 -10 162 -79 219 -130 15 -13 39 -33 54
-44 15 -10 46 -35 70 -54 87 -70 105 -82 198 -130 171 -87 285 -116 424 -107
80 5 159 27 189 52 7 5 19 16 27 23 8 6 20 12 25 12 5 0 24 17 41 38 l32 37
-4 -200 -4 -200 -38 -72 c-21 -39 -36 -82 -34 -94 3 -23 65 -77 155 -135 69
-44 77 -65 45 -121 -44 -80 -159 -173 -202 -164 -8 2 -37 22 -64 44 -27 23
-68 56 -91 72 -61 43 -150 111 -166 127 -8 8 -30 25 -49 38 -19 13 -37 27 -40
30 -5 7 -120 94 -176 135 -15 11 -39 29 -53 41 -14 11 -66 51 -116 89 -49 37
-94 73 -100 80 -5 6 -17 16 -26 21 -20 11 -94 70 -130 104 -15 14 -48 44 -73
68 -25 24 -46 48 -46 53 0 13 14 4 71 -43 26 -21 50 -38 54 -38 3 0 13 -6 20
-12 31 -28 44 -38 50 -38 3 0 23 -13 43 -29 37 -29 152 -77 152 -63 0 14 -55
68 -171 168 -64 55 -176 163 -250 238 -74 76 -157 153 -186 172 -77 51 -104
28 -53 -46 17 -25 65 -124 93 -190 41 -98 61 -140 69 -140 4 0 7 -3 6 -7 -3
-9 46 -84 75 -114 9 -11 17 -24 17 -31 0 -6 3 -9 6 -5 3 3 20 -9 38 -26 18
-18 50 -45 71 -62 41 -32 177 -146 185 -155 3 -3 21 -17 40 -30 19 -14 46 -35
60 -47 14 -13 79 -63 145 -113 66 -49 135 -102 154 -117 18 -16 41 -32 50 -37
9 -5 28 -19 42 -30 15 -12 39 -30 55 -41 133 -94 149 -109 150 -147 2 -35 45
-108 65 -108 5 0 7 -13 5 -30 -4 -39 23 -82 76 -120 24 -16 48 -33 53 -38 6
-5 58 -39 115 -77 58 -38 135 -88 171 -112 68 -45 96 -53 105 -29 5 13 -49 76
-66 76 -5 0 -10 3 -12 8 -3 8 -153 140 -216 191 -23 18 -42 37 -42 41 0 4 46
54 103 111 56 57 109 118 117 134 8 17 17 32 20 35 3 3 25 46 49 95 24 50 45
91 46 93 2 2 57 -22 122 -53 155 -75 156 -75 170 -59 10 10 4 20 -30 49 -23
20 -67 53 -97 72 -30 20 -57 40 -60 44 -22 29 -214 129 -264 136 -61 8 -153
62 -137 79 8 8 23 51 38 105 4 13 7 119 8 234 0 116 4 224 9 240 21 83 59 166
86 190 11 10 20 26 20 35 0 38 25 43 243 51 203 8 250 13 272 29 6 5 37 11 70
15 33 4 69 10 80 13 11 3 152 7 314 9 161 2 297 6 302 9 5 3 7 10 4 15 -4 5
-757 9 -1941 9 -1619 0 -1934 -2 -1934 -14z m2450 -96 c55 -1 55 -1 30 -18
-55 -37 -180 -181 -180 -208 0 -5 -18 -30 -40 -55 -83 -97 -221 -129 -380 -89
-96 24 -161 48 -181 66 -8 8 -19 14 -23 14 -29 0 -177 126 -166 142 1 1 -5 20
-13 41 -9 20 -12 37 -6 37 5 0 32 -20 58 -45 80 -75 95 -56 31 40 -22 33 -40
63 -40 67 0 4 33 8 73 10 63 3 692 1 837 -2z m167 -1091 c21 -21 -23 -147 -75
-211 -34 -43 -97 -108 -104 -108 -5 0 -8 5 -8 11 0 7 -8 18 -17 25 -17 13 -17
15 0 25 56 33 149 170 169 247 7 24 18 28 35 11z"/>
</g>
</svg>
