<?xml version="1.0" standalone="no"?>
<!DOCTYPE svg PUBLIC "-//W3C//DTD SVG 20010904//EN"
 "http://www.w3.org/TR/2001/REC-SVG-20010904/DTD/svg10.dtd">
<svg version="1.0" xmlns="http://www.w3.org/2000/svg"
 width="500.000000pt" height="500.000000pt" viewBox="0 0 500.000000 500.000000"
 preserveAspectRatio="xMidYMid meet">
<metadata>
Created by potrace 1.16, written by Peter Selinger 2001-2019
</metadata>
<g transform="translate(0.000000,500.000000) scale(0.100000,-0.100000)"
fill="#000000" stroke="none">
<path d="M2175 4567 c-4 -15 -23 -30 -54 -45 -42 -19 -52 -29 -71 -74 -28 -65
-50 -144 -50 -182 0 -25 -3 -27 -25 -22 -29 7 -85 -18 -85 -38 0 -7 7 -19 15
-26 8 -7 15 -19 15 -26 0 -8 -7 -14 -15 -14 -17 0 -21 -55 -5 -80 7 -11 -8
-23 -72 -57 -82 -42 -152 -101 -192 -160 -11 -17 -41 -57 -64 -87 -37 -47 -45
-66 -55 -126 -9 -57 -17 -78 -45 -111 -44 -51 -51 -86 -52 -235 0 -92 -4 -129
-17 -154 -29 -60 -22 -105 36 -225 l53 -110 -70 -65 c-45 -42 -80 -86 -100
-125 -28 -56 -34 -62 -83 -79 -30 -11 -94 -39 -144 -64 -49 -24 -110 -54 -134
-66 -50 -24 -177 -138 -186 -167 -5 -13 -16 -19 -38 -19 -18 0 -51 -11 -75
-25 -37 -21 -46 -23 -69 -12 -24 11 -29 8 -84 -50 -31 -34 -59 -72 -61 -85
-10 -60 28 -99 126 -132 48 -16 51 -16 133 9 103 32 100 32 199 11 74 -17 82
-21 99 -52 29 -54 55 -71 145 -94 80 -20 146 -46 179 -68 12 -8 7 -19 -25 -59
-89 -108 -97 -134 -75 -265 4 -27 7 -48 6 -48 -2 0 -22 9 -46 20 -50 22 -138
26 -190 8 -51 -17 -165 -95 -234 -160 -65 -60 -109 -130 -120 -189 -15 -79 57
-261 147 -373 126 -156 268 -232 386 -205 109 24 299 176 351 281 26 51 31 73
31 134 0 40 -7 94 -16 120 -8 25 -14 47 -12 49 2 2 116 11 253 20 421 27 445
30 505 60 30 15 72 39 94 54 27 18 41 22 43 14 13 -38 98 -201 148 -283 154
-253 308 -430 376 -430 44 0 110 33 167 85 43 39 52 53 52 80 0 44 -41 159
-92 257 l-40 77 46 87 c25 48 44 89 42 91 -2 2 -23 -34 -47 -81 -64 -125 -69
-88 -6 45 72 151 208 432 214 442 2 4 2 7 -1 7 -2 0 -35 -56 -72 -125 -37 -69
-68 -124 -70 -122 -4 4 230 467 237 467 3 0 14 -6 24 -14 19 -14 19 -16 -15
-87 -19 -40 -85 -172 -147 -293 -62 -121 -111 -222 -109 -224 4 -3 105 192
230 445 67 136 71 141 97 136 28 -5 61 8 94 38 15 13 80 30 225 57 l204 38 75
-79 c83 -87 170 -142 241 -152 39 -5 55 -2 116 29 123 62 149 131 110 299 -52
224 -281 526 -459 608 -83 37 -169 15 -252 -65 -38 -36 -51 -43 -66 -36 -30
16 -62 11 -94 -16 -16 -15 -24 -23 -17 -20 60 33 -90 -105 -267 -245 -30 -24
-52 -39 -50 -33 4 10 183 175 264 242 39 32 9 15 -47 -29 -16 -11 -28 -17 -28
-12 0 4 -5 1 -10 -7 -9 -12 -23 -2 -80 58 -39 39 -74 72 -78 72 -14 0 -35 47
-29 64 4 9 -10 34 -33 63 -23 27 -40 58 -40 73 0 14 -30 74 -65 135 -51 85
-65 118 -65 150 -1 41 -18 75 -39 75 -25 0 -182 -71 -264 -119 -47 -28 -94
-51 -104 -51 -10 0 -38 14 -63 30 -25 16 -54 30 -65 30 -31 0 -96 91 -83 114
6 10 8 34 5 52 -4 23 2 55 17 95 31 84 71 108 178 109 90 0 203 22 257 49 62
32 132 130 111 156 -5 6 -10 39 -12 74 l-3 64 -53 30 -53 29 -45 -17 c-41 -16
-47 -16 -63 -1 -20 18 -47 21 -56 6 -3 -5 -16 -10 -29 -10 -12 0 -40 -16 -62
-35 l-39 -35 -38 42 c-21 24 -51 71 -67 105 -16 35 -47 85 -70 112 -38 45 -40
51 -29 73 7 12 22 50 34 83 24 69 83 175 96 175 5 0 9 9 9 19 0 26 26 34 66
19 18 -6 37 -9 40 -5 9 9 -52 98 -116 167 -27 30 -50 58 -50 62 0 4 -24 25
-54 48 -44 31 -73 44 -145 60 -119 26 -139 26 -146 -3z m147 -16 c86 -20 140
-52 194 -115 19 -23 45 -52 57 -66 50 -55 82 -104 65 -97 -37 14 -100 28 -105
23 -10 -10 -62 31 -106 87 -26 31 -45 57 -41 57 3 0 34 -16 68 -35 35 -19 69
-35 77 -35 8 0 3 6 -11 14 -14 7 -54 30 -89 50 -82 47 -105 50 -109 14 l-3
-26 -49 20 c-26 11 -60 33 -75 48 -25 26 -26 30 -13 49 l14 20 33 -20 c18 -11
36 -18 38 -15 3 3 -10 14 -28 25 -44 27 -22 27 83 2z m-148 -70 c26 -28 27
-31 12 -46 -21 -21 -20 -31 4 -55 14 -14 33 -20 64 -20 48 0 184 -40 226 -66
14 -8 17 -13 8 -10 -9 3 -34 8 -55 11 -35 5 -34 4 18 -18 63 -27 112 -57 105
-64 -3 -3 -17 4 -32 16 -33 26 -202 81 -248 81 -29 0 -43 9 -90 61 -69 74 -94
118 -74 130 22 14 33 10 62 -20z m-96 -115 c11 -24 24 -46 30 -50 6 -3 8 -32
5 -69 -5 -63 -5 -65 32 -105 58 -65 154 -125 187 -118 16 3 41 9 56 12 23 5
30 1 40 -21 7 -14 9 -37 6 -50 -5 -22 -73 -85 -92 -85 -5 0 -26 27 -46 60 -49
80 -56 77 -11 -5 45 -79 33 -85 -21 -11 -21 30 -57 65 -79 78 -57 33 -172 148
-180 180 -14 57 2 60 50 10 l47 -47 -41 53 c-24 31 -41 65 -41 80 0 23 30 132
36 132 2 0 12 -20 22 -44z m347 -128 c57 -28 65 -48 40 -95 -23 -43 -35 -42
-35 3 l0 37 -37 -6 c-21 -4 -50 -9 -64 -13 -19 -4 -33 1 -52 18 -25 22 -26 24
-12 57 15 32 17 33 63 29 26 -3 70 -16 97 -30z m-407 -167 c6 -20 14 -72 17
-116 5 -64 12 -91 37 -134 27 -49 29 -58 19 -90 -14 -45 -7 -51 14 -11 13 25
20 30 38 24 67 -21 91 -32 95 -42 4 -14 -78 -62 -120 -68 -64 -11 -109 53
-134 190 -6 36 -4 42 22 63 l29 23 -20 37 c-11 20 -39 57 -62 82 -26 27 -43
56 -43 70 0 18 3 21 13 12 8 -6 16 -8 20 -5 3 3 12 -16 21 -43 14 -44 14 -37
-1 39 -5 28 -5 28 19 17 16 -7 29 -25 36 -48z m143 -72 c28 -15 99 -94 99
-110 0 -35 -102 -12 -156 35 -28 24 -38 42 -45 81 -5 28 -12 59 -15 69 -5 14
8 7 42 -21 27 -22 61 -47 75 -54z m-227 24 c3 -4 -18 -16 -48 -27 -84 -32
-189 -120 -226 -188 -17 -32 -40 -64 -52 -72 -37 -26 -58 -68 -57 -116 l1 -45
16 54 c11 39 28 67 58 95 23 23 45 52 49 66 11 37 24 52 98 115 53 45 80 61
125 71 31 8 60 14 64 14 3 0 16 -16 28 -36 l22 -35 -23 -25 c-29 -31 -35 -30
-43 8 -12 60 -18 19 -7 -51 6 -38 11 -94 11 -125 0 -48 -3 -57 -31 -80 -36
-31 -49 -33 -49 -8 0 20 -59 116 -67 108 -2 -2 7 -27 21 -55 31 -60 33 -96 7
-134 l-19 -29 -32 46 c-31 42 -69 76 -87 76 -4 0 7 -15 24 -32 16 -18 43 -50
58 -71 31 -42 31 -43 -12 -146 l-14 -33 -27 25 c-24 22 -83 57 -96 57 -2 0 20
-25 50 -55 30 -31 54 -64 54 -74 0 -10 -14 -45 -31 -77 -26 -49 -32 -74 -36
-146 -5 -82 -13 -103 -28 -78 -3 6 -30 9 -58 9 -52 -2 -52 -2 -12 -8 l40 -6
-35 -10 -35 -9 40 -4 40 -4 -35 -16 -35 -16 35 -4 c44 -4 60 -25 60 -79 0 -36
-3 -43 -19 -43 -18 0 -63 -43 -74 -72 -10 -24 -25 12 -32 76 -4 34 -11 68 -16
76 -5 9 -7 -4 -3 -35 l5 -50 -50 100 c-55 110 -59 128 -35 183 11 26 17 76 19
167 2 128 16 208 36 221 20 12 20 -5 0 -45 -12 -22 -21 -50 -21 -62 0 -16 7
-9 24 24 24 44 34 82 57 205 11 59 38 121 64 142 9 8 31 34 47 58 51 74 106
122 192 168 87 47 89 48 100 37z m503 -219 c-2 -24 -1 -41 4 -39 4 3 4 -9 -1
-27 -6 -17 -8 -33 -7 -35 7 -6 47 85 48 108 0 18 8 8 30 -36 l29 -60 -31 -6
c-46 -10 -49 -21 -4 -14 37 6 42 4 69 -31 l29 -37 -24 -18 -24 -19 33 6 c24 5
38 2 52 -11 19 -17 20 -17 29 7 13 33 37 51 62 45 16 -4 18 -3 8 9 -9 11 -7
14 14 14 29 0 42 -23 21 -40 -8 -7 -14 -19 -14 -26 0 -20 -14 -17 -35 6 -10
11 -23 20 -28 20 -6 0 2 -13 17 -29 17 -18 26 -36 23 -45 -5 -14 -9 -14 -34
-1 -54 28 -70 22 -127 -46 l-28 -33 -47 52 c-27 29 -68 61 -95 73 -40 17 -47
24 -42 42 3 12 6 57 6 100 0 71 2 80 26 102 35 32 47 22 41 -31z m-399 -163
c46 -32 75 -35 131 -10 54 23 97 65 107 104 5 21 31 41 41 32 6 -6 -22 -77
-68 -173 -44 -91 -42 -111 4 -51 33 44 58 94 73 147 l12 45 1 -45 c1 -56 -30
-125 -95 -210 -27 -36 -70 -95 -95 -133 -55 -81 -100 -117 -146 -117 -26 0
-37 7 -58 37 -14 21 -25 41 -25 45 0 4 27 19 60 34 33 15 59 29 56 31 -2 2
-35 -5 -72 -17 -82 -25 -84 -23 -84 82 0 42 -3 83 -6 91 -3 9 8 31 28 54 56
63 68 89 69 145 l0 53 20 -62 c13 -43 28 -68 47 -82z m952 -41 c0 -6 -28 -28
-62 -50 -34 -22 -64 -43 -67 -46 -8 -7 43 12 79 31 16 8 32 15 37 15 13 0 -10
-18 -71 -54 -66 -40 -65 -43 9 -21 50 15 50 15 26 -4 -29 -23 -159 -68 -220
-77 l-44 -7 30 39 c16 21 35 57 41 80 7 22 21 49 32 59 20 18 20 18 20 -18 0
-21 4 -37 9 -37 5 0 47 22 93 50 94 56 88 53 88 40z m-551 -89 c20 -11 49 -37
63 -59 l26 -39 -29 -44 c-16 -24 -41 -70 -56 -101 -26 -59 -32 -65 -48 -49 -6
6 -52 -24 -120 -79 l-110 -88 -27 44 c-16 24 -28 48 -28 53 0 6 -6 14 -13 18
-8 4 -17 20 -21 35 -5 23 -1 31 25 50 17 13 66 70 109 128 92 124 105 137 145
143 17 2 34 5 38 6 4 0 25 -8 46 -18z m143 -133 c33 -50 31 -62 -16 -87 -38
-21 -46 -32 -66 -89 -13 -36 -23 -72 -23 -80 0 -11 -4 -10 -14 4 -19 26 -17
35 28 118 22 42 39 76 36 76 -3 0 -24 -29 -47 -65 -24 -36 -45 -64 -47 -61 -2
2 12 37 33 77 65 131 87 151 116 107z m-811 -221 c14 -55 43 -101 71 -115 24
-13 24 -13 -44 4 -21 4 -28 2 -28 -8 0 -15 40 -38 65 -38 20 0 21 -105 2 -113
-7 -2 -48 29 -91 69 l-79 75 6 60 c3 35 15 80 29 105 23 45 23 45 40 23 10
-11 23 -40 29 -62z m286 17 c-3 -18 0 -24 13 -24 13 0 17 -6 13 -19 -3 -14 0
-19 14 -18 13 2 19 -6 21 -25 2 -16 8 -28 13 -28 5 0 9 -9 9 -21 0 -15 -5 -19
-18 -15 -10 4 -45 -3 -77 -14 -82 -28 -86 -25 -35 20 l45 40 -35 -14 c-19 -8
-51 -17 -70 -21 l-35 -8 53 42 c28 23 52 43 52 45 0 2 -17 -5 -37 -14 -21 -10
-49 -21 -63 -25 l-25 -6 26 23 c15 13 43 36 63 51 45 34 45 44 4 40 -31 -3
-31 -2 7 10 50 17 68 11 62 -19z m355 9 c8 -10 28 -40 43 -66 22 -38 26 -53
18 -70 -8 -18 -5 -30 19 -64 21 -29 28 -47 23 -62 -9 -30 -24 -26 -67 16 l-38
37 -52 -51 -51 -51 21 -36 c21 -35 21 -36 1 -46 -16 -9 -25 -5 -52 25 l-33 36
-33 -18 c-30 -17 -33 -17 -45 0 -17 22 -14 22 -96 -14 -39 -18 -70 -38 -70
-46 0 -9 -17 0 -45 24 -25 20 -45 43 -45 49 0 6 -17 -4 -37 -22 -44 -40 -49
-41 -57 -12 -4 17 3 31 26 55 35 36 59 41 79 17 15 -18 48 -15 138 12 40 11
51 18 42 27 -6 6 -11 16 -11 22 1 11 40 -33 40 -45 0 -4 -23 -13 -51 -20 -66
-16 -56 -25 13 -11 36 8 54 9 56 1 2 -5 8 -10 14 -10 14 0 -1 40 -28 77 -13
17 -24 34 -24 37 0 9 265 226 276 226 6 0 18 -8 26 -17z m662 -179 c3 -9 6
-54 6 -101 0 -83 1 -86 41 -144 44 -62 67 -83 29 -26 -38 57 -61 117 -58 149
3 30 7 25 64 -72 34 -58 64 -120 68 -139 3 -19 22 -53 41 -77 49 -59 44 -77
-7 -28 -151 143 -343 254 -465 270 -29 3 -55 10 -58 13 -4 8 156 104 190 115
17 5 25 -3 45 -39 31 -56 36 -52 10 9 l-20 47 33 13 c73 30 73 30 81 10z
m-621 -96 c23 -18 44 -36 45 -41 2 -4 21 -17 43 -27 21 -11 39 -25 39 -31 0
-16 -49 -3 -83 22 l-27 20 -46 -27 c-24 -14 -46 -25 -48 -23 -1 2 -12 18 -24
36 l-23 32 36 35 c20 20 38 36 41 36 3 0 24 -15 47 -32z m300 -141 c64 -25
117 -43 117 -41 0 2 -32 20 -70 40 -74 39 -80 56 -18 56 35 -1 79 -15 171 -56
l58 -26 -21 -28 c-12 -15 -40 -39 -62 -54 -47 -32 -46 -34 6 -13 20 9 50 30
65 48 28 31 30 31 49 14 20 -18 41 -111 28 -124 -3 -3 -20 8 -38 26 -17 17
-37 31 -44 31 -7 0 -49 -16 -93 -35 -43 -19 -85 -35 -93 -35 -7 0 -58 14 -112
30 -55 17 -100 29 -102 27 -1 -1 57 -29 129 -61 73 -33 136 -63 141 -67 4 -4
-43 4 -105 17 -192 41 -183 36 36 -21 116 -30 215 -54 220 -54 6 0 -37 23 -94
50 l-104 51 59 33 c32 19 73 39 91 45 30 10 34 9 67 -27 33 -36 35 -37 49 -19
10 13 12 34 9 65 l-5 45 91 -78 c51 -43 92 -81 92 -83 0 -3 -15 5 -34 16 -42
27 -46 26 -46 -3 0 -18 8 -27 32 -35 33 -12 68 -38 68 -52 0 -15 -80 -21 -98
-7 -16 12 -16 11 -2 -6 11 -14 24 -17 62 -14 70 7 55 -10 -37 -43 -73 -26 -88
-28 -170 -23 -79 6 -94 10 -119 33 l-29 26 17 -27 c10 -15 16 -37 14 -50 -2
-19 -10 -24 -51 -29 l-49 -5 -64 70 -64 70 -188 8 -187 9 -35 -40 c-34 -39
-92 -71 -127 -71 -11 0 -2 11 27 31 56 39 24 29 -48 -14 -43 -26 -54 -39 -63
-72 -6 -22 -8 -63 -5 -91 5 -44 3 -52 -12 -57 -9 -2 -47 -16 -84 -30 l-68 -26
21 42 c12 23 32 58 44 77 35 58 98 176 88 165 -6 -5 -49 -74 -97 -152 -81
-131 -116 -179 -116 -156 0 10 197 358 259 456 l36 58 55 -5 c30 -3 113 -17
184 -31 71 -14 134 -24 140 -22 6 2 -77 21 -185 42 -107 21 -202 36 -211 33
-26 -11 -109 -146 -205 -337 -51 -101 -95 -187 -99 -190 -4 -3 -4 17 0 44 4
28 11 87 16 133 10 96 38 155 82 173 33 14 125 123 154 184 10 22 35 50 54 63
39 26 71 24 169 -9 74 -26 77 -23 7 10 l-59 27 86 51 85 51 7 -26 c4 -15 11
-33 17 -40 9 -10 84 -48 104 -52 4 -1 17 16 29 37 l23 38 -26 0 c-15 1 -38 4
-52 8 -15 5 -10 -1 13 -13 32 -18 36 -23 27 -40 -13 -25 -16 -25 -65 3 -32 18
-41 29 -43 56 -6 56 2 64 43 40 34 -20 98 -30 111 -17 10 11 -30 57 -59 67
-24 9 -27 13 -18 30 10 18 14 16 58 -29 42 -43 64 -55 166 -93z m-959 47 c3
-9 6 -24 6 -34 0 -33 18 -31 60 6 34 31 42 34 56 24 42 -36 -31 -102 -137
-124 -71 -15 -73 -14 -84 43 -6 33 -3 39 31 69 41 36 59 40 68 16z m417 -3
c30 12 33 11 60 -22 16 -19 29 -36 29 -39 0 -14 -84 -50 -116 -50 -54 0 -100
-33 -129 -93 -25 -54 -119 -167 -138 -167 -6 0 -22 -10 -36 -22 -26 -23 -26
-23 1 7 25 29 128 293 128 330 0 10 23 26 62 44 57 26 64 27 85 14 20 -13 28
-13 54 -2z m-693 -129 c6 -45 17 -94 26 -107 l16 -25 -63 0 c-35 0 -92 -3
-126 -7 l-63 -6 27 54 c30 58 154 194 166 182 4 -5 12 -45 17 -91z m403 5
c-11 -30 -54 -96 -109 -169 -43 -58 -69 -80 -38 -33 10 14 30 49 47 78 l29 52
-66 -70 -66 -70 42 60 43 60 -64 -60 c-35 -33 -54 -49 -43 -35 48 60 44 61
-17 3 -60 -59 -89 -76 -89 -53 0 5 41 52 91 104 71 75 98 97 127 102 19 4 51
17 70 30 44 30 54 30 43 1z m2163 -155 c95 -65 220 -202 300 -327 57 -89 107
-191 112 -232 4 -30 -2 -20 -30 45 -41 97 -108 209 -161 267 -32 36 -32 34 8
-20 89 -123 143 -233 169 -344 9 -41 9 -53 -2 -67 -14 -16 -60 -38 -67 -31 -2
2 -12 37 -23 76 -36 130 -141 313 -221 386 -22 20 -16 10 18 -31 96 -117 173
-272 188 -378 11 -68 -13 -58 -43 20 -124 315 -235 455 -438 551 -41 19 -74
37 -74 39 0 2 20 15 45 29 55 33 81 29 162 -24 75 -49 165 -148 249 -274 85
-127 96 -139 53 -57 -87 169 -215 323 -312 375 -20 11 -37 24 -37 29 0 15 63
-4 104 -32z m-2781 -60 c52 -112 81 -137 178 -158 87 -19 97 -32 53 -66 -19
-15 -24 -27 -20 -44 6 -21 2 -23 -36 -27 l-43 -4 49 -1 c42 -2 47 -4 41 -19
-16 -40 -17 -54 -2 -76 8 -13 17 -39 19 -58 6 -68 -51 -40 -142 69 -62 74 -87
89 -184 107 -61 12 -160 44 -187 61 -4 2 0 27 9 55 14 43 19 49 37 44 191 -57
395 -93 441 -78 26 9 23 10 -37 16 -96 10 -151 32 -193 77 -33 36 -41 39 -106
46 -39 4 -73 10 -76 15 -6 10 40 35 110 60 69 24 69 24 89 -19z m1454 -108
c32 -36 59 -68 61 -72 1 -4 -27 -5 -63 -2 -61 5 -69 8 -145 68 -44 35 -80 66
-80 68 0 2 38 4 84 4 l85 0 58 -66z m971 60 c20 -6 22 -12 22 -73 1 -37 9 -89
19 -119 l18 -53 -24 3 c-20 2 -32 20 -70 107 l-47 104 23 18 c26 21 27 21 59
13z m212 -42 c90 -58 165 -121 200 -171 80 -110 163 -301 158 -363 -4 -54 -21
-46 -35 17 -7 30 -22 75 -35 101 -24 53 -124 164 -149 168 -9 1 -38 20 -65 42
-49 41 -86 64 -101 64 -4 0 -1 -4 7 -10 12 -7 12 -12 -4 -29 -23 -25 -40 -17
-33 15 2 13 0 21 -4 18 -5 -3 -9 -14 -9 -25 0 -10 -7 -19 -15 -19 -12 0 -15
15 -13 78 1 42 3 61 5 41 4 -35 7 -38 51 -49 50 -12 145 -53 172 -73 9 -7 -1
4 -22 24 -36 35 -132 89 -157 89 -6 0 -19 16 -28 35 -12 25 -19 32 -26 23 -6
-9 -7 -7 -3 5 3 10 6 30 6 43 0 13 6 24 13 24 6 0 46 -22 87 -48z m-1398 6
c40 -31 40 -31 34 -87 -3 -32 -2 -48 2 -37 6 14 11 16 16 8 4 -7 11 -10 16 -7
5 3 19 -13 30 -36 20 -39 20 -42 4 -60 -9 -10 -22 -19 -28 -19 -13 0 -46 55
-47 78 0 12 -3 10 -9 -5 -5 -13 -14 -23 -19 -23 -5 0 -12 10 -14 23 -4 21 -4
21 -6 -3 -2 -41 -13 -48 -86 -51 l-70 -4 -17 51 c-9 28 -20 76 -24 105 l-7 54
23 -20 23 -20 -14 22 c-7 12 -11 25 -7 28 5 6 121 33 147 34 7 1 31 -13 53
-31z m-832 -4 c0 -20 48 -25 86 -9 21 8 39 14 41 12 2 -2 -2 -28 -9 -56 -14
-64 -28 -71 -139 -71 l-79 0 0 68 0 67 50 1 c33 0 50 -4 50 -12z m1616 -46
c10 -23 18 -49 16 -56 -2 -9 1 -11 9 -6 8 5 10 3 4 -6 -4 -7 -2 -16 5 -20 9
-5 9 -13 2 -26 -12 -23 -80 -89 -85 -83 -11 15 -117 190 -117 194 0 3 6 5 14
5 7 0 34 -32 60 -70 26 -39 54 -74 62 -77 10 -3 26 5 42 21 17 17 21 25 10 21
-12 -5 -26 9 -57 57 -50 78 -53 68 -6 -16 32 -58 35 -76 13 -76 -12 0 -100
141 -93 149 9 9 67 29 86 30 9 1 24 -16 35 -41z m-1054 -40 l17 -53 -5 45 c-7
59 -1 50 36 -54 38 -108 35 -133 -26 -182 -50 -41 -71 -41 -119 4 -62 57 -73
78 -80 162 -9 96 -1 110 60 110 41 0 42 -1 54 -42 16 -52 52 -140 57 -135 2 1
-4 25 -12 52 -33 110 -34 140 -4 144 3 1 13 -23 22 -51z m-1197 -82 c33 -14
92 -30 129 -36 79 -12 113 -28 147 -66 52 -60 125 -131 142 -141 18 -9 18 -13
2 -101 -14 -73 -21 -92 -34 -92 -9 0 -21 4 -26 9 -16 14 -294 127 -369 150
-98 30 -105 25 -11 -8 80 -28 358 -144 384 -160 19 -12 6 -81 -16 -81 -8 0
-49 18 -89 40 -44 25 -113 51 -171 66 -54 13 -101 28 -104 32 -4 4 -20 27 -37
51 -28 43 -33 45 -118 66 l-89 21 -95 -28 c-90 -27 -96 -28 -145 -13 -58 17
-101 46 -110 76 -9 27 34 98 80 133 34 26 37 27 60 12 14 -9 25 -12 25 -6 0 5
21 21 48 34 45 23 51 24 142 14 68 -7 99 -7 112 1 10 6 25 11 34 11 24 0 193
-82 251 -121 38 -26 44 -28 28 -9 -32 37 -122 90 -201 119 -57 21 -71 30 -62
39 16 16 23 16 93 -12z m635 -21 c41 -9 79 -20 84 -25 16 -16 9 -77 -15 -137
l-22 -56 -72 6 c-110 10 -104 4 -121 116 l-6 44 48 -6 49 -6 -40 21 c-51 26
-48 23 -35 47 7 15 17 20 33 16 12 -3 56 -12 97 -20z m2314 -42 c21 -18 43
-30 47 -27 13 7 97 -104 130 -171 37 -76 38 -127 4 -160 -40 -41 -89 -28 -153
38 -43 45 -26 57 29 20 29 -19 54 -27 87 -27 43 -1 47 1 50 25 4 38 -33 124
-85 197 -43 60 -68 79 -43 32 6 -12 9 -24 6 -27 -9 -10 -36 19 -51 54 -15 36
-44 44 -65 18 -7 -9 -26 -14 -45 -12 -28 2 -32 6 -33 30 0 15 3 25 8 22 5 -3
17 6 26 20 18 28 14 30 88 -32z m-1461 15 c4 -13 0 -29 -8 -39 -13 -14 -13
-21 -1 -55 15 -42 13 -45 -37 -77 -24 -16 -28 -16 -33 -2 -3 8 -12 15 -20 15
-17 0 -17 -2 -2 -35 13 -29 21 -31 38 -10 17 21 33 19 59 -9 20 -21 21 -27 9
-45 -9 -15 -23 -21 -50 -21 -34 0 -38 3 -38 26 0 20 -4 24 -19 19 -13 -4 -25
5 -45 35 -14 22 -30 40 -35 40 -5 0 -11 7 -15 15 -4 10 7 21 34 35 50 25 52
25 101 -6 23 -14 43 -23 46 -21 3 3 -14 16 -36 29 -39 22 -57 46 -25 34 8 -3
12 -2 9 3 -3 5 4 12 15 16 14 4 20 15 20 34 0 44 23 57 33 19z m-451 -75 c21
-20 38 -40 38 -45 0 -4 -43 -28 -96 -53 -90 -44 -99 -46 -147 -38 -51 8 -52 9
-55 45 -3 30 1 39 20 49 29 16 180 77 193 78 5 1 26 -16 47 -36z m2031 -153
c25 0 21 -29 -5 -35 -53 -12 -501 -85 -505 -82 -2 2 4 10 13 18 15 12 370 86
434 90 24 1 23 2 -5 10 -26 7 -25 8 10 4 22 -3 48 -5 58 -5z m-2157 -39 l16
-40 31 20 c41 24 47 24 47 -3 0 -34 11 -45 50 -53 19 -4 40 -11 45 -15 6 -4
39 -11 74 -15 l64 -7 -41 -35 c-48 -40 -63 -63 -72 -113 l-7 -35 -11 28 c-7
16 -10 45 -7 65 8 51 -24 102 -62 102 -61 0 -101 12 -106 31 -5 17 -12 13 -51
-28 l-45 -48 18 -30 c20 -36 77 -76 96 -69 7 3 23 -4 35 -16 16 -16 20 -28 15
-49 -4 -19 -1 -34 9 -44 17 -17 21 -39 7 -35 -5 2 -22 -10 -38 -27 -17 -16
-40 -37 -52 -45 -22 -14 -51 -36 -79 -61 -7 -6 -15 -9 -17 -7 -3 2 19 28 48
56 46 45 53 57 49 83 -2 17 -19 43 -38 62 -33 31 -43 60 -24 72 5 3 16 -8 24
-24 9 -16 23 -36 32 -45 18 -18 38 -11 30 11 -3 8 -1 11 4 8 6 -3 10 -4 10 -1
0 3 -38 34 -84 71 -95 74 -106 94 -106 196 l0 68 53 4 c28 2 55 4 60 5 4 1 14
-16 23 -37z m1294 -16 c0 -21 -106 -225 -164 -315 -73 -113 -148 -209 -207
-265 -55 -52 -55 -49 0 22 18 23 30 46 27 51 -3 6 3 21 15 33 l20 24 -17 -30
-16 -30 20 25 c11 13 18 28 15 33 -2 4 7 23 21 41 l25 33 -29 79 c-33 87 -36
108 -17 102 20 -7 67 -131 55 -146 -6 -7 -9 -15 -6 -17 11 -11 113 148 166
257 40 83 62 118 75 118 9 0 17 -7 17 -15z m-625 -80 c-3 -27 -7 -86 -9 -129
-1 -50 -7 -81 -14 -84 -18 -6 -27 28 -13 50 7 11 10 23 7 26 -3 3 -6 0 -6 -7
0 -7 -14 -17 -31 -23 -21 -7 -27 -13 -19 -18 22 -13 3 -37 -32 -43 -18 -2 -35
-3 -36 -2 -2 2 2 38 9 80 9 57 9 79 0 88 -6 6 -11 15 -11 19 0 17 24 7 51 -22
16 -16 29 -25 29 -20 0 6 -9 19 -20 30 l-21 21 23 19 c23 18 23 18 35 -3 7
-12 12 -17 12 -12 1 6 -3 16 -8 24 -13 20 13 57 39 57 19 0 20 -4 15 -51z
m-256 -54 c25 -14 26 -19 4 -43 -23 -25 -4 -45 25 -27 25 15 27 14 46 -33 15
-34 14 -36 -14 -63 -23 -22 -27 -32 -19 -46 8 -16 2 -22 -43 -45 l-53 -26 23
25 c19 20 23 34 21 78 -2 57 -15 106 -26 96 -3 -4 -18 2 -33 13 -34 24 -63 25
-85 3 -13 -13 -16 -29 -13 -70 3 -30 1 -48 -3 -41 -10 15 -12 89 -3 112 3 8
22 18 41 22 27 5 41 2 64 -15 16 -12 29 -17 29 -12 0 15 -48 41 -77 41 l-28 1
32 29 c34 30 56 30 112 1z m-649 -26 c0 -3 -26 -18 -57 -35 -32 -17 -49 -28
-38 -24 11 3 39 8 61 11 37 5 43 3 49 -17 8 -27 1 -34 -49 -50 -42 -14 -109
-50 -103 -56 2 -2 37 7 77 21 40 14 76 25 80 25 3 0 26 -15 50 -32 l44 -33
-55 -17 -54 -18 57 5 c73 8 85 -10 16 -24 -29 -6 -73 -18 -98 -26 -25 -7 -62
-16 -83 -18 -39 -5 -39 -4 -62 46 -14 31 -26 83 -30 128 l-6 76 73 20 c71 20
128 28 128 18z m-283 -120 c7 -42 26 -108 42 -147 17 -39 28 -75 25 -80 -3 -4
-25 -8 -50 -8 l-44 0 -2 43 c-1 23 0 81 1 130 2 61 -1 92 -10 103 -10 13 -10
17 2 25 23 14 24 12 36 -66z m-59 9 c5 -9 5 -37 0 -67 -7 -34 -6 -58 1 -74 6
-13 11 -33 11 -44 0 -17 -3 -18 -21 -9 -12 7 -37 9 -58 5 -37 -6 -38 -5 -45
26 -13 65 -7 82 41 131 52 53 58 55 71 32z m1761 -48 c21 -11 30 -11 57 0 19
8 36 14 39 14 8 0 -154 -314 -164 -318 -4 -1 -14 5 -22 14 -11 14 -11 18 -1
21 6 3 10 9 6 14 -4 7 16 126 42 247 5 25 10 26 43 8z m-1014 -72 c10 4 15 -1
15 -14 0 -11 5 -20 12 -20 6 0 9 -2 7 -5 -10 -9 -49 8 -42 19 4 6 -22 -16 -58
-49 -35 -33 -85 -77 -110 -97 -45 -37 -273 -148 -304 -148 -9 0 -13 -4 -10
-10 3 -5 4 -10 1 -10 -2 0 -11 -3 -20 -6 -10 -4 -16 -1 -16 9 0 8 6 18 13 20
6 3 -5 6 -25 6 -29 1 -36 -2 -32 -14 9 -24 -23 -29 -54 -9 l-27 19 35 6 c30 5
31 7 8 8 -17 1 -29 8 -33 21 -10 31 4 42 45 37 21 -2 44 -1 51 4 7 4 19 3 26
-2 7 -6 17 -8 23 -4 5 3 10 1 10 -5 0 -6 13 -5 36 5 20 8 40 12 45 10 4 -3 17
3 28 14 11 11 21 17 24 15 2 -3 15 7 28 21 13 13 29 25 34 25 6 0 3 -5 -5 -10
-8 -5 -10 -10 -5 -10 6 0 26 14 45 30 19 16 38 30 41 30 3 0 15 8 27 18 11 9
30 24 43 32 12 8 32 26 43 39 26 29 57 42 73 29 7 -6 20 -8 28 -4z m528 -83
c171 -157 460 -651 456 -780 0 -20 -5 -14 -18 24 -25 69 -83 188 -126 260 -61
100 -58 85 6 -38 54 -105 119 -261 119 -287 0 -28 -20 -2 -45 58 -79 188 -301
562 -367 617 l-23 20 21 -25 c121 -145 353 -564 339 -611 -4 -10 -10 -19 -14
-19 -4 0 -56 89 -116 198 -136 250 -200 354 -248 406 l-37 41 47 -80 c242
-414 303 -531 303 -573 0 -18 -10 -38 -26 -52 -30 -29 -30 -28 -76 69 -99 212
-371 650 -434 700 -24 19 -24 22 -11 41 14 21 75 70 86 70 3 0 -14 -17 -38
-38 l-45 -39 23 -24 c13 -13 52 -61 88 -106 35 -46 67 -83 69 -83 7 0 -53 87
-96 140 -20 25 -40 52 -45 60 -10 16 1 10 55 -35 l25 -20 -20 25 c-11 14 -29
33 -40 42 -11 10 -15 18 -8 18 7 0 29 -15 50 -32 37 -33 37 -28 1 25 -32 45
-4 30 51 -27 28 -30 51 -52 51 -48 0 4 -20 34 -45 67 -25 33 -45 61 -45 62 0
14 30 -7 85 -58 36 -34 65 -57 65 -52 0 13 -45 80 -79 117 l-26 30 30 -18 c17
-10 43 -30 58 -45z m-1714 -94 c-24 -18 -150 -137 -146 -137 2 0 24 16 48 35
30 23 47 31 54 24 7 -7 1 -18 -17 -34 l-28 -24 35 6 c22 4 43 0 58 -10 20 -13
26 -13 51 0 24 13 30 13 51 -1 27 -17 40 -7 30 23 -3 10 1 24 10 31 13 11 19
10 35 -5 26 -24 51 -6 30 20 -11 14 -10 20 12 42 30 30 58 25 58 -10 0 -17
-19 -37 -70 -77 -72 -54 -107 -90 -57 -57 27 18 67 16 67 -4 0 -5 9 -9 20 -9
24 0 26 17 4 41 -15 16 -14 19 14 33 33 17 42 13 42 -20 0 -14 -18 -38 -52
-67 l-51 -44 -22 25 c-12 14 -27 22 -33 18 -8 -5 -6 -12 7 -25 31 -31 47 -31
103 4 29 19 57 35 61 35 8 0 41 -70 35 -74 -2 -1 -11 -8 -20 -15 -15 -11 -21
-9 -42 16 -19 21 -27 25 -37 16 -9 -9 -7 -18 10 -40 l23 -28 -26 -20 -25 -20
23 -26 c16 -19 28 -24 37 -18 11 7 12 12 2 29 -18 28 -16 35 14 49 23 11 29
10 39 -3 6 -9 19 -16 28 -16 19 0 20 4 6 31 -10 17 -7 19 30 19 22 0 40 -2 40
-4 0 -2 -39 -34 -86 -70 -48 -36 -82 -66 -77 -66 5 0 14 5 20 11 15 15 30 5
49 -33 15 -29 15 -32 -4 -51 -22 -21 -42 -16 -42 11 0 9 -5 24 -10 32 -7 11
-8 5 -4 -20 11 -60 15 -62 68 -28 47 29 50 29 63 12 18 -25 16 -47 -7 -61 -16
-11 -21 -10 -30 7 -15 28 -42 15 -34 -16 4 -14 1 -31 -7 -41 -11 -13 -6 -12
23 4 l38 22 6 -23 c7 -31 2 -72 -10 -68 -5 2 -13 -2 -17 -10 -7 -10 -9 -9 -9
5 0 19 -2 20 -24 11 -11 -4 -14 -13 -10 -31 6 -22 -15 -52 -37 -53 -4 0 -9 48
-11 108 -6 124 -25 187 -76 254 -20 26 -37 46 -39 44 -2 -2 14 -32 35 -67 56
-93 66 -130 67 -247 0 -81 -3 -105 -15 -112 -8 -5 -17 -10 -20 -10 -3 0 -4 42
-2 93 5 152 -36 245 -163 373 -33 34 -78 71 -100 83 l-40 22 38 -5 c21 -3 70
-20 110 -40 58 -28 66 -30 42 -11 -70 57 -164 93 -289 110 l-48 7 28 29 c27
29 170 129 182 129 4 0 0 -6 -9 -13z m1329 -89 c7 -7 12 -18 12 -25 0 -23 -78
-53 -160 -61 l-80 -8 0 32 c0 42 16 53 92 63 94 13 123 12 136 -1z m9 -83
c-50 -44 -89 -52 -322 -66 -187 -12 -274 -7 -230 12 11 5 129 17 261 27 207
16 246 22 275 39 51 32 59 26 16 -12z m306 -185 c82 -123 85 -129 57 -105 -14
12 -6 -4 21 -43 59 -85 102 -162 95 -169 -20 -20 -286 402 -286 453 0 25 28
-8 113 -136z m-1695 44 c138 -69 250 -292 197 -393 -51 -99 -201 -57 -306 86
-55 74 -79 139 -79 214 0 54 3 64 29 90 38 37 88 39 159 3z"/>
<path d="M812 954 c-69 -48 23 -241 152 -314 167 -96 201 69 48 233 -44 47
-127 97 -162 97 -9 0 -26 -7 -38 -16z m85 -15 c71 -27 162 -132 184 -211 15
-56 5 -78 -35 -78 -63 0 -161 83 -206 176 -20 39 -27 104 -13 117 9 10 38 8
70 -4z"/>
</g>
</svg>
