<?xml version="1.0" standalone="no"?>
<!DOCTYPE svg PUBLIC "-//W3C//DTD SVG 20010904//EN"
 "http://www.w3.org/TR/2001/REC-SVG-20010904/DTD/svg10.dtd">
<svg version="1.0" xmlns="http://www.w3.org/2000/svg"
 width="1280.000000pt" height="768.000000pt" viewBox="0 0 1280.000000 768.000000"
 preserveAspectRatio="xMidYMid meet">
<metadata>
Created by potrace 1.16, written by Peter Selinger 2001-2019
</metadata>
<g transform="translate(0.000000,768.000000) scale(0.100000,-0.100000)"
fill="#000000" stroke="none">
<path d="M7270 6049 c-586 -18 -989 -87 -1212 -207 -52 -29 -64 -31 -244 -42
-200 -12 -269 -26 -337 -66 -23 -13 -55 -31 -72 -40 -16 -8 -48 -26 -70 -39
-22 -14 -50 -30 -62 -35 -12 -5 -41 -22 -65 -37 -24 -15 -64 -39 -90 -53 -26
-14 -95 -53 -153 -87 -57 -35 -109 -63 -114 -63 -5 0 -11 -4 -13 -8 -1 -5 -15
-15 -30 -23 -73 -37 -403 -241 -435 -269 -7 -5 -15 -10 -18 -10 -7 0 -115 -69
-240 -153 -88 -59 -113 -77 -224 -158 l-55 -39 -130 0 c-149 0 -486 -15 -686
-30 -507 -40 -915 -118 -1252 -240 -115 -42 -314 -136 -373 -176 -20 -13 -38
-24 -41 -24 -3 0 -32 -20 -64 -46 -63 -49 -68 -61 -104 -224 -19 -88 -56 -341
-56 -387 0 -27 -6 -34 -48 -54 -26 -12 -84 -46 -129 -76 l-83 -53 0 -93 c0
-50 5 -132 11 -182 5 -49 12 -205 14 -345 2 -140 5 -260 5 -267 0 -15 99 -80
135 -89 16 -4 40 -13 54 -20 14 -8 33 -14 42 -14 9 0 39 -7 65 -14 80 -24 213
-49 301 -56 73 -5 87 -10 123 -39 61 -49 155 -87 248 -100 73 -11 87 -10 107
3 21 14 24 23 22 69 -2 52 -2 52 30 55 28 3 33 0 38 -25 4 -15 13 -43 21 -61
8 -18 14 -37 14 -42 0 -4 23 -48 51 -96 48 -85 133 -194 173 -223 11 -8 28
-23 38 -33 10 -10 23 -18 28 -18 6 0 10 -4 10 -9 0 -5 31 -29 70 -53 38 -24
69 -45 70 -48 0 -3 -179 -5 -398 -5 -426 0 -432 -1 -432 -49 0 -12 5 -27 12
-34 9 -9 276 -12 1140 -12 1124 0 1127 0 1138 20 15 29 3 59 -28 71 -16 6
-125 10 -267 9 -294 -2 -278 -3 -230 22 49 25 159 110 200 153 61 65 125 149
125 164 0 6 4 11 8 11 10 0 92 162 92 182 0 7 4 19 9 27 7 11 22 6 78 -26 l69
-40 470 -8 c258 -4 642 -11 854 -16 212 -4 722 -12 1134 -18 412 -6 756 -13
764 -16 8 -3 407 -10 886 -15 792 -9 877 -9 931 6 105 29 98 29 124 -17 96
-169 233 -311 377 -388 21 -12 34 -21 29 -22 -6 0 -179 0 -386 1 -207 1 -431
-2 -498 -6 -114 -6 -124 -9 -133 -29 -7 -16 -7 -29 1 -44 l12 -21 1127 0 c864
0 1131 3 1140 12 7 7 12 22 12 34 0 43 -22 49 -198 51 -91 1 -167 5 -170 8 -3
3 0 5 7 5 6 0 17 5 24 10 7 6 35 25 62 43 53 33 157 133 215 205 61 75 117
180 147 275 10 31 21 57 25 57 4 0 41 -11 82 -24 70 -23 81 -24 183 -15 59 5
115 12 123 15 8 3 75 9 149 14 73 4 138 13 144 19 6 6 44 11 84 11 65 0 74 2
85 22 16 28 17 193 1 209 -7 7 -5 29 9 72 48 149 60 241 55 432 -3 99 -11 210
-18 247 -15 74 -15 74 -122 139 l-60 36 2 183 c3 283 -34 493 -120 676 -10 23
-19 44 -19 48 0 24 -103 145 -154 183 -34 25 -65 52 -70 60 -4 8 -16 23 -25
33 -9 10 -45 59 -81 109 -93 131 -197 274 -212 290 -17 21 -118 162 -118 166
0 2 34 6 76 10 68 7 76 10 85 32 13 36 -8 74 -56 100 -58 31 -251 92 -360 113
-33 6 -73 15 -90 19 -16 5 -75 16 -130 26 -55 9 -129 24 -165 32 -36 8 -98 18
-139 23 -40 4 -77 12 -83 18 -5 5 -14 38 -19 73 -24 167 -21 163 -111 157 -68
-5 -76 -9 -165 -74 -21 -15 -27 -15 -90 6 -38 12 -84 28 -103 36 -34 12 -100
31 -265 73 -44 12 -118 28 -165 36 -47 9 -121 22 -165 30 -118 22 -340 53
-420 60 -38 3 -115 10 -170 15 -311 29 -734 40 -1125 29z m865 -75 c143 -8
283 -18 310 -23 28 -5 91 -12 140 -16 145 -10 463 -59 569 -87 21 -5 60 -13
85 -18 25 -4 82 -18 126 -30 44 -12 103 -28 130 -35 90 -25 264 -90 279 -105
14 -14 -7 -13 -129 6 -55 8 -138 19 -185 24 -209 23 -315 40 -319 51 -8 25
-43 49 -70 49 -16 0 -41 4 -55 10 -26 9 -206 43 -321 60 -509 73 -507 73 -980
73 -259 -1 -483 -5 -545 -12 -58 -6 -140 -15 -184 -20 -69 -8 -81 -12 -103
-37 l-25 -29 -336 -6 c-185 -3 -339 -5 -340 -3 -2 1 40 16 95 33 194 60 513
106 843 121 129 6 262 12 295 14 96 5 439 -4 720 -20z m50 -120 c271 -24 347
-33 430 -48 l80 -15 -160 5 c-88 2 -227 11 -310 19 -95 10 -336 18 -660 22
-523 8 -554 13 -175 32 214 11 580 4 795 -15z m140 -147 c143 -15 288 -29 510
-47 55 -5 138 -13 185 -19 47 -6 123 -16 170 -21 303 -34 482 -58 640 -85 47
-8 108 -17 135 -20 28 -3 73 -10 100 -15 28 -5 106 -19 175 -31 185 -32 435
-84 555 -115 l70 -18 -40 -7 c-40 -8 -59 -6 -190 11 -38 5 -140 16 -225 25
-85 9 -207 23 -271 31 -64 8 -166 19 -225 24 -60 5 -203 19 -319 30 -115 12
-259 25 -320 30 -60 5 -155 14 -210 21 -55 6 -156 14 -225 19 -297 19 -477 31
-650 45 -102 9 -295 20 -430 25 -135 5 -312 14 -395 19 -150 10 -1117 30
-1590 34 -239 2 -249 3 -220 19 18 9 66 19 115 23 47 3 141 11 210 17 248 21
490 25 1385 23 759 -1 935 -4 1060 -18z m-2656 -150 c-37 -31 -86 -69 -144
-113 -27 -20 -52 -40 -55 -43 -3 -4 -25 -22 -50 -41 -25 -19 -46 -38 -48 -42
-2 -5 -10 -8 -18 -8 -8 0 -14 -4 -14 -8 0 -4 -30 -31 -67 -59 -38 -29 -79 -62
-93 -75 -13 -13 -49 -42 -79 -65 -30 -24 -73 -60 -95 -81 -23 -21 -75 -66
-116 -102 -75 -64 -117 -100 -151 -133 -11 -9 -74 -67 -142 -129 -67 -61 -126
-118 -131 -126 -7 -12 -27 -13 -115 -8 -184 12 -354 49 -418 91 l-33 22 38 30
c20 16 61 46 90 66 28 20 74 53 102 72 27 19 52 35 55 35 3 0 11 5 18 10 18
16 238 160 243 160 3 0 35 19 72 43 37 24 85 54 107 67 22 13 63 38 92 57 28
18 54 33 57 33 3 0 25 13 49 30 24 16 55 34 68 40 13 6 47 25 74 42 28 17 124
74 215 126 91 52 179 103 195 113 25 15 54 18 175 18 l145 0 -26 -22z m471 14
c0 -4 -28 -28 -62 -52 -60 -41 -144 -105 -198 -151 -14 -12 -56 -46 -95 -77
-38 -30 -81 -65 -95 -77 -14 -12 -68 -60 -120 -106 -109 -96 -125 -109 -205
-183 -45 -42 -67 -55 -90 -55 -33 0 -162 -24 -210 -39 -56 -17 -66 -23 -80
-52 -20 -38 -20 -168 0 -216 8 -19 15 -39 15 -44 0 -11 -420 -12 -438 0 -9 5
12 30 75 87 117 105 169 153 207 189 17 17 65 59 106 94 41 35 77 67 80 71 3
4 41 35 85 70 44 34 90 73 102 86 12 13 25 24 29 24 4 0 25 16 48 36 22 20 50
43 61 53 41 35 420 326 440 338 24 13 345 18 345 4z m780 -12 c217 -6 396 -11
397 -13 2 -2 -125 -390 -158 -481 -5 -16 -28 -86 -51 -155 -22 -69 -48 -145
-57 -170 -10 -25 -31 -84 -46 -132 l-29 -88 -150 -1 c-83 0 -403 -1 -710 -2
l-560 -2 -1 115 c-1 68 -6 124 -13 137 -7 12 -12 28 -12 37 0 31 -45 66 -86
66 l-39 0 80 76 c113 106 133 124 190 169 28 22 52 42 55 46 5 6 103 91 126
108 6 5 64 50 130 100 65 51 134 104 153 119 19 15 55 42 80 59 l46 33 130 -5
c72 -3 308 -10 525 -16z m597 -23 c3 -3 -60 -315 -102 -501 -7 -33 -21 -98
-30 -145 -9 -47 -22 -107 -30 -135 -8 -27 -17 -72 -21 -98 -3 -26 -12 -67 -19
-90 l-12 -42 -127 -3 c-69 -1 -126 0 -126 4 0 13 24 89 31 99 4 6 10 28 14 50
4 22 11 45 15 50 4 6 33 91 65 190 32 99 64 194 70 210 19 46 77 216 86 250
14 54 49 148 59 160 6 8 30 10 67 7 32 -2 59 -5 60 -6z m154 -16 c28 0 29 -2
29 -47 0 -27 -7 -106 -15 -178 -31 -272 -35 -303 -45 -400 -6 -55 -15 -131
-20 -170 -5 -38 -12 -98 -16 -131 l-6 -61 -76 -7 c-124 -10 -155 -8 -148 9 5
14 41 181 53 245 6 33 41 194 54 245 6 22 14 65 19 95 5 30 14 78 20 105 7 28
20 86 30 130 10 44 22 102 26 128 6 48 7 49 37 43 16 -3 42 -6 58 -6z m389
-10 c74 -6 212 -14 305 -20 94 -6 215 -15 270 -20 55 -5 172 -14 259 -20 87
-6 162 -13 166 -15 4 -3 24 -58 45 -122 20 -65 43 -134 50 -153 7 -19 21 -62
30 -95 9 -33 31 -105 49 -160 18 -55 40 -127 50 -160 10 -33 27 -86 37 -118
11 -31 19 -61 19 -66 0 -5 -93 -9 -207 -10 -115 -1 -327 -6 -473 -11 -146 -5
-430 -10 -632 -10 l-368 0 6 48 c2 26 11 97 19 157 8 61 21 182 30 270 9 88
20 194 25 235 5 41 14 121 21 178 l12 102 76 -1 c42 0 137 -4 211 -9z m1188
-168 c13 -43 30 -97 38 -122 8 -25 26 -85 40 -135 15 -49 33 -110 40 -135 30
-100 55 -188 70 -239 8 -29 17 -58 21 -64 3 -6 10 -28 13 -50 6 -29 4 -40 -6
-44 -24 -9 -64 6 -64 24 0 9 -16 64 -35 122 -19 59 -48 153 -66 211 -41 135
-92 301 -130 416 -16 50 -29 93 -29 95 0 2 19 3 43 1 l42 -4 23 -76z m97 72
c14 -4 25 -23 38 -67 10 -34 35 -111 54 -172 73 -227 91 -283 128 -400 20 -66
43 -140 51 -164 8 -25 13 -46 11 -47 -1 -1 -20 -4 -41 -6 -43 -3 -37 -13 -71
112 -10 36 -33 112 -51 170 -17 58 -41 137 -52 175 -42 143 -84 281 -98 320
-26 74 -19 93 31 79z m260 -29 c44 -3 139 -12 210 -20 72 -8 182 -20 245 -26
63 -6 149 -14 190 -19 41 -4 104 -11 140 -15 67 -7 110 -21 110 -37 0 -8 110
-197 172 -296 9 -15 23 -38 31 -52 28 -51 42 -75 48 -80 5 -5 17 -25 48 -85 6
-11 31 -51 55 -90 l44 -70 -141 -6 c-222 -11 -1049 -31 -1053 -26 -5 5 -62
174 -88 262 -10 33 -24 76 -31 95 -13 35 -22 63 -90 285 -21 66 -43 134 -51
152 -20 45 -19 46 34 40 26 -4 83 -9 127 -12z m1084 -116 c105 -17 111 -19
111 -29 0 -9 43 -69 89 -126 5 -6 51 -69 101 -140 50 -71 96 -130 101 -132 5
-2 9 -8 9 -13 0 -5 17 -31 38 -58 20 -26 44 -58 52 -71 8 -12 20 -28 25 -34 6
-6 18 -23 28 -38 l17 -28 -47 0 c-27 0 -91 -3 -143 -6 l-95 -6 -20 33 c-72
124 -229 386 -272 454 -23 39 -54 91 -68 117 -13 26 -29 49 -35 53 -5 3 -10
13 -10 21 0 17 29 18 119 3z m-5215 -491 c16 -62 17 -62 -112 -55 -79 5 -142
14 -188 29 l-69 22 50 12 c28 7 109 13 181 13 128 1 132 0 138 -21z m-299 -98
c47 -14 112 -23 199 -27 l128 -6 -6 -53 c-3 -29 -12 -70 -19 -91 l-12 -38 -75
0 c-123 0 -287 34 -315 65 -23 26 -45 98 -45 151 l0 49 38 -14 c20 -8 69 -24
107 -36z m-1318 -83 c38 -48 142 -90 279 -112 54 -9 100 -18 103 -21 6 -5 -30
-31 -79 -58 -19 -10 -44 -26 -55 -35 -11 -9 -36 -25 -55 -35 -19 -11 -53 -34
-76 -53 -23 -18 -46 -33 -52 -33 -6 0 -15 -6 -19 -13 -4 -6 -28 -26 -53 -42
-25 -16 -47 -32 -50 -36 -3 -3 -39 -32 -80 -64 -41 -32 -112 -90 -156 -127
l-82 -68 -68 16 c-38 8 -91 19 -119 24 -27 5 -72 16 -100 24 -132 37 -205 48
-293 41 -248 -17 -439 -82 -653 -221 -24 -16 -46 -31 -49 -34 -3 -3 -27 -23
-55 -44 -27 -22 -62 -52 -77 -66 -22 -21 -41 -29 -89 -34 -94 -9 -359 -7 -462
4 -51 6 -134 14 -185 19 -51 5 -95 10 -97 12 -2 2 1 27 6 54 5 28 14 84 20
125 18 134 61 300 78 300 5 0 39 20 77 46 68 44 265 144 314 159 14 4 30 11
35 15 11 7 100 38 185 63 30 9 84 25 120 36 36 11 79 22 95 24 17 3 84 17 150
31 122 28 263 50 415 66 330 35 442 42 735 49 182 4 340 8 352 9 12 1 30 -8
40 -21z m7513 -98 l42 -34 -50 -6 c-64 -8 -122 -43 -122 -72 0 -12 12 -58 26
-102 78 -247 164 -645 140 -645 -6 0 -129 -1 -274 -2 -180 -2 -265 1 -270 8
-4 6 -47 33 -97 59 -49 26 -94 51 -100 55 -17 11 -175 67 -260 92 -74 21 -98
23 -327 22 l-248 0 0 120 c0 191 -42 326 -135 441 l-43 52 182 7 c629 22 815
28 1101 36 176 4 337 7 357 5 24 -2 51 -15 78 -36z m-1811 -31 c63 -39 109
-92 145 -168 45 -97 66 -203 66 -339 l0 -110 -37 -6 c-63 -11 -182 -56 -288
-109 -55 -28 -102 -53 -105 -56 -3 -3 -12 -9 -21 -15 -64 -40 -106 -73 -188
-151 -214 -202 -307 -358 -411 -690 -13 -41 -29 -167 -30 -231 l0 -53 -769 0
-769 0 -7 163 c-17 391 -10 916 16 1127 33 274 64 391 146 556 l35 71 527 8
c289 4 702 11 916 15 759 13 733 13 774 -12z m-4991 -18 l56 0 -25 -27 c-42
-47 -88 -127 -118 -206 l-11 -27 -159 0 c-170 0 -191 -4 -232 -42 -14 -13 -38
-34 -54 -46 -61 -48 -155 -136 -155 -145 0 -5 41 -55 92 -110 51 -56 101 -113
113 -126 11 -14 35 -40 53 -58 l34 -33 112 0 113 0 6 -337 c4 -186 11 -376 16
-423 5 -47 12 -138 16 -202 l6 -118 -24 0 c-24 0 -25 2 -32 103 -4 56 -14 131
-22 167 -8 36 -18 83 -23 105 -21 103 -110 313 -171 403 -16 24 -29 45 -29 48
0 3 -5 10 -10 17 -6 7 -31 39 -56 72 -52 68 -234 248 -276 273 -15 9 -28 20
-28 24 0 4 -4 8 -9 8 -6 0 -29 13 -53 29 -24 15 -65 40 -91 54 l-48 25 88 74
c48 40 106 86 128 102 22 16 45 34 50 40 10 11 43 36 163 119 28 20 74 53 102
72 27 19 52 35 55 35 3 0 28 16 55 35 27 19 53 35 57 36 5 0 31 16 58 35 48
33 52 34 124 29 41 -3 99 -5 129 -5z m2702 3 c0 -3 -6 -14 -14 -22 -13 -15
-36 -68 -71 -161 -39 -104 -70 -273 -97 -520 -13 -129 -16 -809 -4 -1058 l8
-154 -1290 4 c-710 2 -1294 6 -1298 11 -4 4 -11 53 -16 110 -56 721 -47 1206
28 1452 19 61 65 175 72 175 2 0 13 -11 24 -25 30 -39 98 -81 158 -99 117 -35
450 -9 538 41 72 41 100 107 66 158 l-16 25 64 0 c60 0 67 2 90 30 l25 30 549
3 c302 1 692 3 867 5 174 1 317 -1 317 -5z m-2300 -18 c0 -2 -13 -11 -30 -20
-33 -17 -60 -61 -60 -98 0 -13 11 -41 25 -62 15 -20 25 -39 23 -40 -2 -2 -35
0 -74 5 -88 9 -162 47 -200 101 -29 43 -28 49 28 90 40 28 44 29 165 29 67 0
123 -2 123 -5z m253 -20 l49 -7 -7 -36 c-4 -20 -9 -39 -12 -42 -7 -7 -123 -15
-176 -12 l-49 3 18 27 c52 82 62 91 96 81 18 -4 55 -11 81 -14z m6260 -43 c8
-10 25 -44 38 -77 13 -33 26 -64 30 -70 8 -11 41 -156 59 -253 15 -87 24 -350
13 -392 -9 -34 -11 -35 -64 -38 l-54 -3 -18 78 c-9 43 -17 88 -17 100 0 58
-107 492 -155 626 -13 35 -12 37 8 42 71 15 140 9 160 -13z m-7038 -269 c-3
-12 -8 -35 -11 -50 -18 -84 -34 -205 -34 -258 -1 -107 4 -104 -113 -97 l-101
5 -76 81 c-130 138 -150 163 -144 177 3 8 35 37 70 64 36 28 77 61 92 75 27
24 33 25 175 26 l147 1 -5 -24z m-1350 -163 c126 -14 263 -46 340 -79 22 -10
60 -26 85 -36 104 -44 240 -135 318 -212 24 -24 47 -43 50 -44 4 0 30 -27 57
-61 28 -33 57 -68 65 -77 68 -72 181 -281 226 -421 8 -25 19 -54 24 -65 24
-58 68 -350 57 -380 -5 -11 -23 -15 -77 -15 l-70 0 0 63 c0 100 -31 256 -74
371 -50 133 -152 297 -255 409 -33 35 -168 144 -216 174 -478 298 -1098 223
-1480 -177 -155 -162 -231 -298 -293 -520 -28 -100 -34 -154 -36 -317 l-1
-138 -70 4 c-38 1 -74 5 -79 9 -11 7 0 289 13 340 6 20 20 78 31 127 33 138
80 250 181 425 52 91 207 264 299 335 73 56 149 108 180 123 14 6 32 16 40 21
32 21 129 60 205 84 189 59 318 75 480 57z m7356 -170 c127 -40 253 -98 337
-156 35 -24 66 -44 69 -44 15 0 194 -166 238 -221 174 -216 285 -489 305 -755
9 -126 2 -202 -19 -208 -9 -3 -43 -6 -76 -8 l-60 -3 3 155 c2 108 -1 182 -12
243 -15 85 -41 186 -56 217 -4 8 -22 47 -40 85 -33 70 -102 183 -143 233 -95
114 -310 292 -353 292 -8 0 -14 4 -14 10 0 5 -12 13 -27 16 -16 4 -33 11 -40
16 -37 29 -194 75 -318 93 -166 24 -319 15 -485 -29 -186 -50 -354 -145 -509
-291 -59 -55 -151 -167 -151 -183 0 -6 -4 -12 -9 -14 -14 -5 -87 -148 -119
-233 -47 -123 -72 -247 -72 -352 l0 -93 -76 0 -77 0 7 83 c7 80 45 260 68 315
32 79 43 103 76 172 21 41 40 77 43 80 3 3 19 25 34 50 15 25 34 49 41 53 8 4
14 13 14 18 0 6 16 27 35 47 19 20 35 40 35 44 0 13 180 161 247 204 37 24 73
48 80 54 7 5 15 10 18 10 4 0 37 14 73 31 146 67 256 96 427 109 77 7 141 13
142 14 1 1 60 -3 131 -10 92 -8 160 -21 233 -44z m-7266 -140 c67 -13 139 -32
170 -45 93 -39 141 -61 145 -67 3 -4 17 -12 30 -17 77 -33 257 -193 325 -290
95 -135 153 -265 191 -431 22 -92 25 -321 6 -396 l-13 -51 -50 26 c-40 21 -49
30 -44 46 3 11 9 66 12 122 6 108 -14 264 -43 331 -8 18 -14 39 -14 47 0 20
-69 150 -120 225 -183 269 -524 430 -859 405 -169 -13 -319 -63 -466 -158 -90
-57 -230 -202 -292 -302 -24 -37 -71 -140 -88 -190 -35 -106 -45 -171 -45
-311 l0 -141 -46 -7 c-25 -3 -49 -4 -54 -1 -14 9 -19 152 -9 260 10 99 29 175
72 285 20 52 38 93 48 110 5 8 18 31 29 51 10 21 25 43 32 50 7 8 21 26 31 42
25 39 190 197 240 229 23 15 47 31 52 35 24 19 154 81 200 96 125 41 161 49
243 57 91 8 248 3 317 -10z m7002 10 c141 -13 259 -47 384 -112 35 -18 69 -37
74 -41 6 -4 35 -26 65 -49 96 -70 139 -111 198 -188 191 -247 264 -497 236
-802 -6 -57 -9 -66 -23 -59 -9 5 -32 11 -51 15 l-35 6 -1 162 c-1 228 -31 337
-142 516 -45 73 -45 74 -144 172 -196 197 -461 296 -738 276 -177 -13 -345
-73 -494 -176 -78 -54 -190 -166 -234 -234 -15 -23 -30 -43 -33 -46 -11 -9
-78 -154 -93 -203 -37 -112 -48 -199 -43 -332 5 -118 9 -151 32 -251 6 -29 5
-31 -37 -47 -24 -9 -46 -17 -50 -17 -5 0 -15 33 -43 151 -39 167 -4 471 71
611 8 14 14 33 14 42 0 9 4 16 9 16 5 0 12 11 15 24 3 14 12 31 19 38 7 7 25
33 40 58 51 88 176 217 269 277 23 15 45 31 48 34 8 10 160 85 205 102 86 32
161 49 244 57 121 10 125 10 238 0z m-8687 -92 c160 -14 422 -17 459 -4 23 8
22 6 -10 -39 -19 -26 -44 -57 -56 -69 -13 -11 -23 -24 -23 -29 0 -4 -15 -29
-33 -55 -75 -108 -172 -342 -201 -487 l-13 -60 -86 -5 -86 -5 -67 -60 c-37
-33 -85 -77 -108 -97 l-41 -37 -118 -1 -119 0 6 48 c4 26 0 146 -9 267 -29
409 -30 437 -14 446 86 54 189 109 205 109 21 0 44 36 44 69 l0 37 63 -7 c34
-4 127 -14 207 -21z m9936 -20 l9 -43 85 -5 c79 -5 85 -6 90 -30 5 -22 50 -57
115 -90 11 -5 29 -16 40 -22 11 -7 21 -13 22 -14 2 0 10 -38 19 -85 20 -109
15 -352 -10 -455 -15 -61 -21 -71 -46 -81 -28 -11 -31 -9 -65 37 -66 90 -84
100 -183 100 l-87 1 -27 84 c-32 99 -97 240 -139 303 -16 23 -29 47 -29 51 0
5 -7 11 -15 15 -8 3 -15 11 -15 18 0 7 -16 30 -35 51 -19 21 -35 41 -35 45 0
3 -37 41 -82 84 l-81 78 230 0 230 0 9 -42z m-8271 -109 c22 -6 56 -14 75 -18
58 -13 174 -69 245 -117 59 -41 185 -168 220 -224 105 -167 148 -309 148 -490
0 -105 -13 -194 -38 -260 -36 -96 -60 -149 -86 -187 -16 -23 -29 -44 -29 -48
0 -21 -161 -175 -230 -220 -124 -79 -124 -80 -270 -121 -120 -34 -298 -34
-420 0 -214 59 -374 170 -499 344 -28 40 -51 76 -51 81 0 6 -9 25 -19 43 -21
36 -45 103 -67 186 -22 82 -19 295 5 385 34 124 64 190 135 292 64 92 86 115
181 190 92 72 185 119 300 151 65 18 107 22 220 23 77 0 158 -4 180 -10z
m7122 -9 c40 -10 90 -26 110 -35 89 -39 122 -56 133 -70 7 -8 17 -15 23 -15
15 0 94 -66 151 -124 53 -56 107 -134 144 -211 13 -27 28 -57 32 -66 4 -8 18
-51 31 -95 32 -113 32 -333 -1 -448 -12 -44 -26 -87 -30 -95 -5 -9 -21 -41
-36 -71 -34 -70 -103 -166 -155 -219 -81 -81 -259 -191 -342 -211 -18 -4 -59
-15 -92 -24 -39 -11 -100 -16 -180 -16 -317 0 -580 152 -752 435 -40 65 -84
187 -102 281 -20 106 -10 306 19 379 4 11 13 36 20 55 41 117 129 253 213 328
22 21 47 44 55 52 62 62 207 135 338 170 99 27 321 27 421 0z m1336 -689 c26
-27 47 -54 47 -60 0 -15 34 -31 65 -31 l27 0 -52 -96 c-28 -53 -58 -103 -66
-111 -10 -10 -44 -17 -101 -21 l-86 -5 6 49 c7 49 -7 259 -19 302 -6 21 -4 22
63 22 l70 0 46 -49z m-10017 -42 c-3 -34 -6 -105 -6 -157 l0 -95 -84 6 c-120
10 -353 59 -421 89 l-40 18 105 0 105 1 45 40 c25 22 74 67 110 100 65 58 65
58 129 59 l64 0 -7 -61z m4104 -204 c404 0 1286 -1 1960 -2 l1226 -3 17 -92
c9 -51 20 -105 23 -120 l6 -28 -194 0 -194 0 -12 34 c-17 46 -49 85 -81 98
-33 13 -259 25 -736 37 -209 6 -389 13 -400 16 -11 3 -380 8 -820 11 -746 5
-1833 -8 -1898 -22 -16 -4 -52 -28 -81 -55 l-54 -49 -150 0 c-83 0 -157 2
-165 5 -11 5 -12 16 -6 53 5 26 11 64 14 84 l6 37 57 4 c31 3 212 2 402 -2
190 -3 676 -6 1080 -6z m1580 -125 c135 -5 396 -13 580 -19 433 -14 567 -23
584 -42 8 -8 17 -25 21 -38 l7 -24 -358 6 c-198 3 -783 13 -1300 21 -518 9
-1092 20 -1275 26 -184 5 -435 10 -559 10 -259 0 -422 9 -414 22 17 27 78 33
454 44 417 13 1808 9 2260 -6z"/>
<path d="M1690 4256 c-225 -76 -354 -251 -376 -511 l-6 -70 38 -13 c22 -8 92
-16 158 -19 95 -4 130 -2 180 12 83 24 168 56 187 72 8 7 21 13 27 13 12 0
134 91 173 129 80 81 159 239 159 321 l0 47 -88 21 c-126 31 -358 30 -452 -2z
m195 -72 c32 -77 8 -197 -52 -265 -60 -68 -70 -76 -118 -99 -40 -20 -66 -25
-126 -25 -67 0 -81 4 -124 30 -26 17 -52 37 -58 45 -15 25 49 145 113 210 78
79 203 137 297 139 51 1 53 0 68 -35z m220 17 c72 -23 72 -28 18 -140 -75
-153 -225 -273 -414 -332 -81 -25 -239 -36 -298 -20 -41 12 -43 14 -37 43 3
17 6 38 6 47 1 14 2 14 13 1 7 -9 30 -27 52 -40 36 -22 51 -25 145 -25 96 0
110 3 159 29 61 32 138 106 163 157 46 93 50 110 46 187 -2 42 -8 85 -12 95
-7 15 -2 17 45 17 30 0 81 -9 114 -19z"/>
<path d="M9130 4299 c-38 -22 -89 -77 -90 -96 0 -6 -18 -14 -40 -17 -22 -3
-58 -9 -79 -12 -53 -7 -79 -36 -62 -67 15 -27 58 -45 130 -54 28 -3 51 -11 51
-17 0 -20 64 -83 107 -105 92 -46 203 -9 268 92 12 18 26 27 44 27 40 0 127
28 141 45 19 22 4 61 -27 73 -16 6 -53 13 -83 15 -42 4 -58 9 -70 27 -25 38
-82 91 -107 101 -45 17 -145 11 -183 -12z"/>
<path d="M6581 4262 c-31 -12 -57 -33 -85 -69 -39 -50 -44 -53 -98 -59 -148
-17 -160 -104 -17 -124 35 -5 70 -10 77 -10 6 0 12 -7 12 -15 0 -9 18 -33 40
-55 99 -97 261 -80 328 34 19 33 51 46 109 46 30 0 79 25 86 44 12 31 -4 54
-46 64 -136 34 -134 33 -158 70 -48 74 -162 108 -248 74z"/>
<path d="M2860 3291 c-68 -9 -126 -29 -211 -75 -65 -34 -79 -45 -162 -116 -82
-71 -151 -182 -193 -310 -25 -76 -28 -99 -28 -220 0 -150 16 -218 76 -334 68
-129 213 -272 331 -324 130 -58 176 -67 322 -66 123 1 149 4 215 27 129 44
206 92 302 188 109 109 158 206 203 400 19 83 17 142 -9 267 -51 245 -253 464
-500 543 -67 22 -254 32 -346 20z m288 -108 c26 -6 27 -15 5 -49 -22 -34 -147
-97 -176 -88 -94 27 -185 100 -158 127 23 23 246 30 329 10z m-385 -60 c6 -16
17 -34 24 -41 7 -7 13 -20 13 -27 0 -7 6 -20 13 -27 7 -7 32 -48 56 -91 l42
-77 -26 -10 c-15 -6 -29 -10 -32 -10 -3 0 -18 -11 -35 -25 -16 -14 -33 -25
-36 -25 -4 0 -23 28 -42 63 -19 34 -40 71 -47 82 -7 11 -18 31 -25 45 -7 14
-23 40 -35 59 -26 39 -27 37 59 85 56 31 56 31 71 -1z m507 12 c7 -8 17 -15
23 -15 5 0 25 -9 43 -20 l33 -21 -25 -47 c-14 -26 -41 -72 -59 -102 -19 -30
-39 -66 -45 -80 -26 -59 -36 -61 -97 -24 -30 18 -60 35 -67 37 -7 3 -6 10 5
23 14 17 64 102 128 220 25 46 40 54 61 29z m-670 -242 c0 -57 -4 -81 -17 -95
-9 -10 -20 -18 -25 -18 -5 0 -32 -16 -61 -35 -33 -22 -64 -35 -84 -35 -35 0
-38 6 -24 42 43 112 90 192 146 252 l27 29 19 -32 c14 -24 19 -50 19 -108z
m874 79 c25 -32 56 -76 67 -98 21 -40 59 -140 59 -156 0 -16 -59 -8 -97 14
-110 65 -107 61 -113 151 -3 47 -1 91 5 102 13 26 25 45 29 45 2 0 24 -26 50
-58z m-423 -217 c135 -48 176 -209 80 -314 -84 -91 -232 -79 -303 24 -51 74
-33 196 37 255 23 20 95 49 121 49 12 1 41 -6 65 -14z m-351 -185 l0 -70 -164
0 -163 0 -7 31 c-7 36 -8 104 -2 110 2 2 79 3 170 1 l166 -3 0 -69z m920 0 l0
-70 -167 0 -168 0 2 72 c1 40 2 73 2 73 1 0 75 -1 166 -3 l165 -3 0 -69z
m-1156 -149 c3 -5 25 -19 48 -31 81 -42 88 -53 88 -147 0 -46 -4 -83 -9 -83
-5 0 -13 -12 -18 -27 l-10 -28 -25 27 c-27 30 -108 145 -108 154 0 3 -6 20
-14 37 -27 63 -36 88 -36 97 0 13 77 13 84 1z m1136 1 c0 -4 -8 -30 -18 -57
-25 -71 -75 -156 -121 -207 -55 -58 -65 -46 -69 82 l-4 98 69 46 c49 33 78 45
106 45 20 1 37 -3 37 -7z m-780 -92 c21 -16 47 -30 58 -30 12 0 24 -5 27 -10
5 -9 -30 -86 -46 -100 -5 -5 -73 -123 -98 -171 -13 -27 -13 -27 -50 -10 -64
28 -94 57 -86 83 4 13 13 30 20 38 13 15 87 144 115 200 8 16 17 30 19 30 2 0
20 -13 41 -30z m411 -21 c13 -23 38 -65 54 -95 17 -29 42 -74 58 -100 15 -26
26 -48 25 -49 -23 -14 -107 -61 -118 -66 -10 -4 -22 9 -39 40 -13 25 -27 48
-31 51 -3 3 -9 12 -13 20 -4 8 -18 33 -32 55 -14 22 -30 52 -36 68 -6 15 -15
27 -20 27 -22 0 -6 30 19 36 15 4 43 17 62 30 19 13 38 23 41 23 3 1 16 -18
30 -40z m-77 -302 c10 -18 13 -34 8 -39 -26 -26 -318 -26 -345 1 -19 19 32 70
106 105 l72 33 71 -35 c46 -24 77 -46 88 -65z"/>
<path d="M2902 2683 c-40 -38 -52 -64 -52 -113 0 -109 105 -172 206 -124 48
23 74 70 74 133 0 46 -4 55 -40 91 -38 38 -43 40 -99 40 -51 0 -64 -4 -89 -27z"/>
<path d="M9945 3290 c-136 -18 -284 -99 -402 -218 -104 -106 -161 -226 -189
-398 -16 -99 -16 -109 1 -211 22 -130 47 -197 108 -289 99 -149 217 -239 397
-301 65 -23 92 -26 210 -27 154 -1 228 16 355 82 64 34 192 147 248 220 36 46
87 159 107 232 25 96 27 275 4 369 -51 205 -197 387 -384 477 -104 49 -162 64
-278 68 -64 3 -144 1 -177 -4z m283 -107 c12 -3 22 -11 22 -18 0 -20 -48 -73
-73 -81 -12 -3 -29 -12 -37 -19 -35 -29 -71 -27 -137 6 -98 49 -132 103 -70
113 85 15 233 14 295 -1z m-369 -85 c14 -25 45 -78 69 -116 23 -39 42 -74 42
-78 0 -4 7 -15 15 -24 14 -15 11 -18 -33 -38 -26 -12 -57 -30 -68 -41 -24 -22
-17 -29 -84 94 -18 33 -41 71 -50 85 -10 14 -21 35 -24 48 -4 12 -12 22 -17
22 -5 0 -9 7 -9 15 0 15 108 85 124 81 6 -1 21 -23 35 -48z m504 35 c17 -10
36 -22 42 -26 5 -4 18 -13 28 -20 18 -13 18 -14 -1 -48 -12 -18 -31 -54 -43
-79 -13 -25 -26 -47 -30 -50 -3 -3 -20 -31 -37 -63 -17 -32 -34 -58 -37 -58
-4 -1 -20 11 -35 25 -16 14 -41 28 -55 32 -14 3 -28 10 -31 15 -5 8 31 76 118
222 22 37 42 67 45 67 3 0 19 -8 36 -17z m229 -207 c44 -67 66 -112 83 -173
l12 -43 -29 0 c-28 0 -76 23 -152 72 l-36 23 0 82 c0 59 5 90 17 112 l18 30
24 -22 c13 -12 41 -48 63 -81z m-924 69 c7 -14 12 -64 12 -110 l0 -85 -41 -22
c-66 -36 -80 -45 -92 -57 -6 -6 -26 -11 -45 -11 -34 0 -34 1 -29 34 12 76 137
276 171 276 7 0 18 -11 24 -25z m506 -258 c84 -47 120 -162 76 -247 -38 -74
-97 -110 -180 -110 -170 0 -252 208 -129 328 64 63 152 74 233 29z m526 -162
l0 -75 -165 0 -165 0 0 70 0 69 153 4 c83 1 158 4 165 5 9 1 12 -18 12 -73z
m-920 -5 l0 -70 -165 0 -164 0 -7 35 c-3 19 -3 51 0 70 l7 35 164 0 165 0 0
-70z m-217 -157 c17 -10 36 -22 42 -26 5 -5 25 -17 43 -27 l32 -20 0 -84 c0
-84 -13 -136 -34 -136 -36 0 -176 231 -176 290 0 26 49 27 93 3z m1112 -25
c-13 -43 -45 -119 -55 -128 -3 -3 -18 -25 -34 -50 -16 -24 -40 -56 -53 -70
l-24 -25 -19 25 c-17 21 -20 38 -17 114 l2 88 70 43 c48 30 82 44 107 44 l36
1 -13 -42z m-736 -79 c28 -13 51 -27 51 -31 0 -8 -25 -54 -62 -115 -37 -60
-46 -75 -69 -120 -13 -24 -28 -43 -35 -43 -21 0 -124 60 -124 72 0 4 36 68 80
143 44 75 80 141 80 148 0 6 6 2 14 -9 8 -11 38 -31 65 -45z m361 26 c0 -7 6
-20 13 -27 7 -7 30 -44 51 -83 21 -38 50 -90 64 -114 29 -49 34 -41 -59 -93
l-48 -26 -81 140 c-45 77 -79 147 -76 154 3 8 14 14 24 14 11 0 37 13 58 29
40 29 54 31 54 6z m-146 -266 c46 -22 71 -41 85 -65 11 -18 16 -36 12 -39 -35
-21 -328 -21 -349 0 -3 3 2 20 10 38 12 25 33 42 80 65 34 17 71 31 80 31 9 1
46 -13 82 -30z"/>
<path d="M9980 2674 c-65 -59 -65 -147 0 -209 28 -26 38 -30 95 -30 57 0 67 3
95 30 42 41 56 92 40 149 -17 62 -66 96 -138 96 -46 0 -57 -4 -92 -36z"/>
<path d="M4170 1703 c-52 -5 -70 -17 -70 -47 0 -43 13 -46 230 -46 147 0 209
3 218 12 16 16 15 53 -1 67 -15 12 -298 23 -377 14z"/>
<path d="M11075 1701 l-70 -6 0 -40 0 -40 220 0 220 0 3 31 c2 17 -3 36 -11
42 -16 14 -260 23 -362 13z"/>
</g>
</svg>
